<?xml version="1.0" ?><svg id="Слой_1" style="enable-background:new 0 0 512 512;" version="1.1" viewBox="0 0 512 512" xml:space="preserve" xmlns="http://www.w3.org/2000/svg" xmlns:xlink="http://www.w3.org/1999/xlink"><style type="text/css">
	.st0{fill:#FFC300;}
	.st1{fill:#5C4A43;}
	.st2{fill:#FFFFFF;}
	.st3{fill:#BEB7B4;}
	.st4{fill:#FFF4DC;}
</style><g><g><path class="st0" d="M448.6,324.7c0,6.6-2.7,12.6-7,16.9c-4.3,4.3-10.3,7-16.8,7h-23c-5,0-9,3.9-9,8.7V402    c0,11.3-9.5,20.5-21.3,20.5H189.6c-11.8,0-21.3-9.2-21.3-20.5V360c0-6.3-5.3-11.4-11.8-11.4h-23c-13.1,0-23.8-10.8-23.8-23.9    c0-6.6,2.7-12.6,7-16.9c0.3-0.3,0.6-0.6,1-0.9c7.1-6.4,9.7-16.1,6.1-24.8c-8.7-21.3-12.3-46.9-12.3-69.6    c0-85.7,75.1-155.2,167.7-155.2s167.7,69.5,167.7,155.2c0,22.7-3.6,48.2-12.3,69.6c-3.5,8.7-0.9,18.4,6.1,24.8    C445.5,311.3,448.6,317.6,448.6,324.7z"/></g><g><g><path class="st1" d="M420.2,325.8c-0.2,7.2-3.9,13.7-10.3,17.1c-3.8,2-7.8,2.1-12,2.1c-7,0-14-0.3-20.9,0     c-10.5,0.5-15.5,8.5-15.5,18.2c0,8.1,0,16.3,0,24.4c0,6.4,0.2,12.9,0,19.3c-0.2,9.2-7.6,15.6-16.6,15.9c-7.5,0.2-15.1,0-22.6,0     c-34.6,0-69.3,0-103.9,0c-15.3,0-30.6,0-45.9,0c-6.7,0-13.6,0.5-20.3,0c-9.7-0.8-15-8.6-15-17.7c0-7.9,0-15.9,0-23.8     c0-6,0.3-12.1,0-18.1c-0.5-11.3-9.4-18-20.2-18c-7.4-0.1-14.8,0.1-22.2,0c-11.7-0.2-21.2-10.4-19.2-22.3     c1.3-7.7,7.3-11.3,11.4-17.3c3.9-5.9,5.5-13.2,4.5-20.2c-1.1-7.8-5.2-15.4-7.3-23c-2.2-8-3.8-16.1-5-24.3     c-3.8-27.3-2.5-54.9,7-80.9c8.3-22.8,22.4-43.2,40-59.8c38.3-36,92.1-51.8,143.9-45.7c50,5.8,97.6,33.6,124.8,76.3     c13.1,20.5,21.3,44.1,23.1,68.4c1.1,15.3,0.2,31-2.3,46.1c-1.3,8.1-3.1,16.1-5.5,24c-2.2,7.2-6.1,14.3-6.4,21.9     c-0.3,7.1,2.3,14.1,6.7,19.5C415.2,313.8,419.9,317.5,420.2,325.8c0.2,7.7,12.2,7.7,12,0c-0.2-7.8-2.9-15-8-20.9     c-5-5.6-9.8-10.5-8.1-18.7c0.7-3.7,2.6-7.3,3.8-10.9c1.5-4.4,2.8-8.8,4-13.3c2.1-8.2,3.6-16.6,4.6-25c3.6-28.2,2.1-56.9-7.8-83.8     c-18.3-49.6-60-87.4-109.6-104.5c-52.3-18-112-12.6-159.9,15.2c-44.9,26-77.7,71.2-84.5,123c-4.2,31.4,0.1,65.3,11.5,94.9     c2.9,7.5,1.8,14.7-4,20.5c-5.3,5.3-9.1,11.3-10.3,18.8c-2.1,13.7,5.3,27.4,17.9,33.1c8.2,3.7,17.5,2.8,26.3,2.8     c5.9,0,16.5-2,17.1,6.4c1,14.3-0.3,29,0,43.4c0.2,12,7.4,22.3,18.7,26.4c4.3,1.6,8.7,1.7,13.2,1.7c11.4,0,22.8,0,34.3,0     c37,0,74.1,0,111.1,0c12.4,0,24.9,0,37.3,0c2,0,4.1,0.1,6.1,0c13.9-0.6,26.1-10.7,27.6-24.9c0.6-6.1,0.2-12.3,0.2-18.4     c0-8.9,0-17.7,0-26.6c0-1.6-0.5-4.2,0.2-5.8c1.2-2.8,5.6-2.1,8-2.1c7.9,0,16.3,0.8,24.2-0.4c15.3-2.3,25.9-15.7,26.4-30.8     C432.4,318.1,420.4,318.1,420.2,325.8z"/></g></g><g><path class="st1" d="M249.1,338.7L249.1,338.7c10.3,0,16.3-11.5,10.5-20l-10.3-15c-0.1-0.2-0.3-0.2-0.5,0l-10.3,15    C232.7,327.2,238.8,338.7,249.1,338.7z"/><g><path class="st1" d="M249.1,344.7c10.6,0,19.3-9.2,18.7-19.8c-0.4-7.4-6-13.6-10.1-19.4c-1.5-2.1-3.1-5.5-5.4-6.9     c-4.3-2.5-7.6,0.7-9.9,3.9c-3.7,5.3-8.5,10.8-10.9,16.9C226.7,331.7,236.4,344.1,249.1,344.7c7.7,0.4,7.7-11.6,0-12     c-3.4-0.2-6.4-2.6-6.8-6.1c-0.2-2.6,1.3-4.6,2.6-6.6c3-4.4,6.1-8.8,9.1-13.3c-1.7,1-3.5,2-5.2,3c0.2,0,0.3,0,0.5,0     c-1.7-1-3.5-2-5.2-3c3.1,4.5,6.2,9,9.3,13.5c1.4,2,2.8,4,2.4,6.6c-0.5,3.3-3.4,5.8-6.7,5.8C241.3,332.7,241.3,344.7,249.1,344.7z     "/></g></g><g><g><path class="st1" d="M192.2,443.2c0-10,0-20,0-29.9c0-7.7-12-7.7-12,0c0,10,0,20,0,29.9C180.2,450.9,192.2,450.9,192.2,443.2     L192.2,443.2z"/></g></g><g><g><path class="st1" d="M231.1,443.2c0-10,0-20,0-29.9c0-7.7-12-7.7-12,0c0,10,0,20,0,29.9C219.1,450.9,231.1,450.9,231.1,443.2     L231.1,443.2z"/></g></g><g><g><path class="st1" d="M274.5,443.2c0-10,0-20,0-29.9c0-7.7-12-7.7-12,0c0,10,0,20,0,29.9C262.5,450.9,274.5,450.9,274.5,443.2     L274.5,443.2z"/></g></g><g><g><path class="st1" d="M317.9,443.2c0-10,0-20,0-29.9c0-7.7-12-7.7-12,0c0,10,0,20,0,29.9C305.9,450.9,317.9,450.9,317.9,443.2     L317.9,443.2z"/></g></g><g><g><circle class="st1" cx="190" cy="275.9" r="26.9"/><g><path class="st1" d="M211,275.9c-0.3,11.4-9.3,20.9-20.9,20.9c-11.4,0-21-9.5-20.9-20.9c0-11.4,9.5-20.9,20.9-20.9      C201.7,255,210.7,264.5,211,275.9c0.2,7.7,12.2,7.7,12,0c-0.3-13.7-8.5-25.9-21.5-30.8c-12.7-4.8-27.8-0.9-36.5,9.5      c-9,10.7-10.5,26.3-3.2,38.4c7.2,11.8,21,17.8,34.6,15.3c15.5-2.8,26.2-16.9,26.6-32.3C223.2,268.2,211.2,268.2,211,275.9z"/></g></g><g><circle class="st1" cx="306.8" cy="275.9" r="26.9"/><g><path class="st1" d="M327.7,275.9c-0.3,11.4-9.3,20.9-20.9,20.9c-11.4,0-21-9.5-20.9-20.9c0-11.4,9.5-20.9,20.9-20.9      C318.4,255,327.4,264.5,327.7,275.9c0.2,7.7,12.2,7.7,12,0c-0.3-13.7-8.5-25.9-21.5-30.8c-12.7-4.8-27.8-0.9-36.5,9.5      c-9,10.7-10.5,26.3-3.2,38.4c7.2,11.8,21,17.8,34.6,15.3c15.5-2.8,26.2-16.9,26.6-32.3C339.9,268.2,327.9,268.2,327.7,275.9z"/></g></g><g><circle class="st2" cx="191.1" cy="275.9" r="12.9"/></g><g><circle class="st2" cx="168.9" cy="276.7" r="5.8"/></g><g><circle class="st2" cx="307.8" cy="276.7" r="12.9"/></g><g><circle class="st2" cx="285.6" cy="277.4" r="5.8"/></g><g><path class="st3" d="M249.1,332L249.1,332c5.2,0,8.3-5.9,5.4-10.2l-5.2-7.7c-0.1-0.1-0.2-0.1-0.2,0l-5.2,7.7     C240.8,326.1,243.8,332,249.1,332z"/></g><g><g><path class="st1" d="M232.6,386.2c4.4,1.9,9.2,1.3,13.7,0.2c13.6-3.2,26.1-11.4,37.3-19.3c6.3-4.4,0.3-14.8-6.1-10.4      c-10.1,7.1-21.1,14.5-33.1,17.8c-3.4,0.9-3.1,0.7-6.2,0.9c-1.8,0.1,0,0.1-0.3,0c-0.6-0.3-1.9-0.8,0.7,0.4      C231.6,372.8,225.5,383.1,232.6,386.2L232.6,386.2z"/></g></g><g><g><path class="st1" d="M188.6,202.7c6.2-3.2,12.3-6.4,18.5-9.7c6.8-3.6,0.8-13.9-6.1-10.4c-6.2,3.2-12.3,6.4-18.5,9.7      C175.7,195.9,181.7,206.2,188.6,202.7L188.6,202.7z"/></g></g><g><g><path class="st1" d="M288.6,202.7c6.2-3.2,12.3-6.4,18.5-9.7c6.8-3.6,0.8-13.9-6.1-10.4c-6.2,3.2-12.3,6.4-18.5,9.7      C275.7,195.9,281.8,206.2,288.6,202.7L288.6,202.7z"/></g></g></g><g><ellipse class="st4" cx="179.6" cy="329.2" rx="16.9" ry="12.9"/></g><g><ellipse class="st4" cx="318.6" cy="329.2" rx="16.9" ry="12.9"/></g></g></svg>